<svg xmlns="http://www.w3.org/2000/svg" viewBox="0 0 224.8 101.84"><defs><style>.cls-1{fill:#033e38;}.cls-2{fill:#fdfdfd;}.cls-3{fill:#fff;}.cls-4{fill:#1d1d1b;}</style></defs><g id="Capa_2" data-name="Capa 2"><g id="Capa_1-2" data-name="Capa 1"><path class="cls-1" d="M51.93,72.5a28.85,28.85,0,0,1,6.92-7.07c5.24,15.77-8.31,35-25.4,36.29C14.39,103.19.25,90.28.11,71.13,0,57.17-.1,43.2.17,29.24A29.88,29.88,0,0,1,27.08.12,29.49,29.49,0,0,1,59,23.46a45,45,0,0,1,.05,12.39c-3.17-.94-4.37-3.52-6.36-5.11l-.86-1.11a2.32,2.32,0,0,1-.79-1.22C50.18,18.8,44.59,13,36,9.6A24.33,24.33,0,0,0,23.7,9.49C15.22,13.34,9.11,18.92,9.32,29.13q0,22.34,0,44.63c.37,9.39,5.73,15.9,15.13,18.35a40.56,40.56,0,0,0,10.95,0c8.28-1.76,12.89-7.19,15-15.06C50.86,75.5,50.55,73.73,51.93,72.5Z"/><path class="cls-1" d="M49.77,30.37c-.24.22-.5.42-.73.66-1.79,1.8-3.1,5.37-5.68,4.62-1.78-.52-.55-4.2-.76-6.45C42,22.29,37,17.52,30.16,17.5c-7,0-12.46,4.52-12.59,11.39-.27,14.63-.31,29.26,0,43.88C17.67,80,23.22,84.7,30.33,84.56c6.8-.13,11.68-5,12.29-12,.19-2.24-1.14-5.68.86-6.44C45.9,65.26,47,69,48.94,70.36a5.68,5.68,0,0,1,1,1.14c2.18,4.3.33,8.13-1.83,11.61A20.12,20.12,0,0,1,31.73,92.9a9,9,0,0,1-4.1-.16C15.75,91.2,9,83.63,9,71.56c-.07-13,.28-25.94-.11-38.89-.33-11.18,4.24-18.78,14.54-23,3.8-.95,7.61-1.52,11.47-.27,7.75,2.55,13.76,6.85,15.6,15.4C50.89,26.75,51.33,28.68,49.77,30.37Z"/><path class="cls-2" d="M31.78,92.36c3.16-1.4,6.74-1.66,9.62-3.85,5.64-4.29,8.73-9.81,8.5-17l2,1c.45,10-5.5,17.8-16,21C34.8,92.27,32.9,93.71,31.78,92.36Z"/><path class="cls-3" d="M49.77,30.37c.35-9.61-3.8-15.19-14.85-20-.42-1,.11-1.57.86-2.08a.87.87,0,0,1,1.08.31c10.75,4.62,15.63,11.47,15,21Z"/><path class="cls-3" d="M24,10.5C13.7,14.85,9.48,22.66,9.86,33.68S9.94,55.91,9.94,67c0,15.66,3.56,20.64,18.13,25.32-1.11,1.35-3-.07-4.14,1.15C14.92,90.7,9.31,85,8.11,75.35c.51-15.91.67-31.82-.08-47.73.32-10,6.68-15.26,14.79-19.22a1.17,1.17,0,0,1,1.35.06A1.68,1.68,0,0,1,24,10.5Z"/><path class="cls-3" d="M24,8.66,22.82,8.4c4.7-1.26,9.39-1.74,14,.24l-1,.06A26.47,26.47,0,0,1,24,8.66Z"/><text/><path class="cls-3" d="M24,8.66l11.78,0-.9,1.71c-3.66-.95-7.31-.06-11,.09C24,9.88,24,9.27,24,8.66Z"/><path class="cls-4" d="M71.42,60.85V60c1.88-.23,2.11-.52,1.71-1.62s-1-2.58-1.57-4.41H65.29c-.46,1.3-.89,2.44-1.3,3.63-.64,1.88-.23,2.11,2.15,2.4v.82h-6.7V60c1.82-.23,2.29-.43,3.3-3l6-15.23.93-.18c1.82,5,3.82,10.45,5.65,15.47.93,2.52,1.19,2.75,3.25,3v.82Zm-2.9-15.47c-.93,2.5-1.92,5.14-2.79,7.43h5.42Z"/><path class="cls-4" d="M92.41,46.52a8.74,8.74,0,0,0-.9-2.15c-.55-1-1-1.22-2.61-1.22H85.8c-.84,0-.93.09-.93.93v6.7h3.6c2.09,0,2.23-.35,2.67-2.38H92v6.06h-.9c-.38-2-.58-2.49-2.64-2.49h-3.6v5.19c0,2.52.29,2.64,2.93,2.87v.82H79.74V60c2.35-.17,2.61-.37,2.61-2.87V45.67c0-2.52-.29-2.63-2.61-2.87V42h9.19c2.61,0,3.6,0,4.09-.06,0,1,.15,3.08.29,4.47Z"/><path class="cls-4" d="M110.83,56.23c-.18.76-1,3.74-1.25,4.62H95.48V60c2.7-.2,2.9-.46,2.9-2.84V45.73c0-2.58-.32-2.72-2.49-2.93V42h8.88c2.72,0,3.85,0,4.2-.06,0,.73.15,2.9.26,4.44l-.87.15a9.57,9.57,0,0,0-.87-2.21c-.46-1-1.13-1.16-2.87-1.16h-2.76c-.89,0-1,.09-1,.93v6.41h3.22c2.17,0,2.32-.44,2.67-2.41h.89v6h-.89c-.38-2.09-.61-2.38-2.7-2.38h-3.19v5.77c0,2,.64,2.21,2.09,2.23h2.69c1.77,0,2.06-.26,2.7-1A12.7,12.7,0,0,0,110,56Z"/><path class="cls-4" d="M127.42,56c-.18.9-1,3.92-1.34,4.82H112.59V60c2.64-.26,2.87-.4,2.87-2.87V45.65c0-2.47-.29-2.61-2.61-2.85V42h7.78v.81c-2.32.24-2.64.35-2.64,2.85v11.8c0,1.77.23,2.18,1.88,2.21l2.3,0c1.47,0,1.91-.17,2.58-.89a10.16,10.16,0,0,0,1.77-3Z"/><path class="cls-4" d="M140.9,60.85V60c1.88-.23,2.12-.52,1.71-1.62s-1-2.58-1.57-4.41h-6.26c-.47,1.3-.9,2.44-1.31,3.63-.64,1.88-.23,2.11,2.15,2.4v.82h-6.7V60c1.83-.23,2.29-.43,3.31-3l6-15.23.93-.18c1.83,5,3.83,10.45,5.65,15.47.93,2.52,1.19,2.75,3.25,3v.82ZM138,45.38c-.93,2.5-1.92,5.14-2.79,7.43h5.43Z"/><path class="cls-4" d="M169.26,42.8c-1.85.21-2.46.5-2.55,1.83,0,.93-.09,2.15-.09,4.84V61.11h-1.1L153.11,45.94v7.25c0,2.61.08,3.91.14,4.75.06,1.48.78,1.92,2.87,2.09v.82h-7.05V60c1.8-.14,2.5-.58,2.61-2,.09-.93.15-2.23.15-4.87v-7.4a2.53,2.53,0,0,0-.58-1.91c-.55-.73-1.16-.9-2.58-1.05V42H153l12.3,14.59V49.47c0-2.69-.06-3.94-.15-4.81-.08-1.31-.75-1.71-3.07-1.86V42h7.16Z"/><path class="cls-4" d="M179.64,42c4.09,0,6.67.81,8.47,2.52a8.43,8.43,0,0,1,2.47,6.21A9.5,9.5,0,0,1,187,58.55c-2.2,1.66-5,2.3-8.58,2.3h-6.79V60c2.49-.23,2.61-.43,2.61-2.81V45.65c0-2.5-.35-2.61-2.61-2.85V42Zm-2.93,15c0,2.17.93,2.78,3.11,2.78,5.22,0,7.89-3.57,7.89-8.64,0-3.16-1.08-5.57-3.37-7a9.19,9.19,0,0,0-5-1.16,4.16,4.16,0,0,0-2.29.4c-.26.18-.38.5-.38,1.63Z"/><path class="cls-4" d="M193.39,60.85V60c2.37-.26,2.61-.37,2.61-2.84V45.67c0-2.49-.24-2.61-2.61-2.87V42h7.77v.81c-2.41.26-2.64.38-2.64,2.87V57.19c0,2.49.23,2.58,2.64,2.84v.82Z"/><path class="cls-4" d="M214.33,60.85V60c1.88-.23,2.11-.52,1.71-1.62s-1-2.58-1.57-4.41H208.2c-.46,1.3-.89,2.44-1.3,3.63-.64,1.88-.23,2.11,2.15,2.4v.82h-6.7V60c1.82-.23,2.29-.43,3.3-3l6-15.23.92-.18c1.83,5,3.83,10.45,5.66,15.47.93,2.52,1.19,2.75,3.25,3v.82Zm-2.91-15.47c-.92,2.5-1.91,5.14-2.78,7.43h5.42Z"/><path class="cls-4" d="M68.37,64.85h1l3.14,8.51H71.24l-2.36-6.87-2.36,6.87H65.23Zm-1.69,5.51h4.48V71.5H66.68Z"/><path class="cls-4" d="M76.46,67.28H79.2v1.08H76.46Zm1,5.71a1.9,1.9,0,0,1-.34-1.21V65.51h1.2v6.28a.58.58,0,0,0,.09.35.28.28,0,0,0,.25.12h.58v1.13h-.69A1.35,1.35,0,0,1,77.42,73Z"/><path class="cls-4" d="M81.82,73.14a2.08,2.08,0,0,1-.86-.9,3.19,3.19,0,0,1-.3-1.44v-1A3.06,3.06,0,0,1,81,68.4a2.08,2.08,0,0,1,.86-.9,3.09,3.09,0,0,1,2.7,0,2.08,2.08,0,0,1,.86.9,3.06,3.06,0,0,1,.3,1.41v1a3.07,3.07,0,0,1-.3,1.42,2,2,0,0,1-.86.9,3.09,3.09,0,0,1-2.7,0Zm2.32-1.22a1.61,1.61,0,0,0,.34-1.1v-1a1.58,1.58,0,0,0-.34-1.09,1.4,1.4,0,0,0-1.94,0,1.58,1.58,0,0,0-.34,1.09v1a1.61,1.61,0,0,0,.34,1.1,1.38,1.38,0,0,0,1.94,0Z"/><path class="cls-4" d="M88.17,73.18a1.78,1.78,0,0,1-.72-.85A3.16,3.16,0,0,1,87.2,71V69.66a3.4,3.4,0,0,1,.24-1.35,1.83,1.83,0,0,1,.7-.84,2,2,0,0,1,1.11-.29,1.78,1.78,0,0,1,1,.28,2.15,2.15,0,0,1,.73.79l-.13,1.24a1.34,1.34,0,0,0-.14-.66,1,1,0,0,0-.4-.42,1.33,1.33,0,0,0-.65-.14,1.15,1.15,0,0,0-.92.37,1.48,1.48,0,0,0-.32,1V71a1.45,1.45,0,0,0,.32,1,1.18,1.18,0,0,0,.92.36,1.33,1.33,0,0,0,.65-.15,1,1,0,0,0,.4-.43,1.41,1.41,0,0,0,.14-.67l.09,1.28a1.83,1.83,0,0,1-.6.76,1.67,1.67,0,0,1-1,.3A2.13,2.13,0,0,1,88.17,73.18Zm2.66-8.33H92v8.51h-1.2Z"/><path class="cls-4" d="M94.82,73.14a2.06,2.06,0,0,1-.85-.9,3.19,3.19,0,0,1-.3-1.44v-1A3.06,3.06,0,0,1,94,68.4a2.06,2.06,0,0,1,.85-.9,2.87,2.87,0,0,1,1.36-.31,2.81,2.81,0,0,1,1.35.31,2.08,2.08,0,0,1,.86.9,3.06,3.06,0,0,1,.3,1.41v1a3.07,3.07,0,0,1-.3,1.42,2,2,0,0,1-.86.9,2.7,2.7,0,0,1-1.35.31A2.76,2.76,0,0,1,94.82,73.14Zm2.33-1.22a1.61,1.61,0,0,0,.34-1.1v-1a1.58,1.58,0,0,0-.34-1.09,1.4,1.4,0,0,0-1.94,0,1.58,1.58,0,0,0-.34,1.09v1a1.61,1.61,0,0,0,.34,1.1,1.38,1.38,0,0,0,1.94,0Z"/><path class="cls-4" d="M101.52,73.35a3.86,3.86,0,0,1-.88-.32,3.52,3.52,0,0,1-.75-.53l.71-.87a3.73,3.73,0,0,0,1,.56,2.61,2.61,0,0,0,1,.19,2,2,0,0,0,1.06-.22.72.72,0,0,0,.35-.66.52.52,0,0,0-.19-.44,1,1,0,0,0-.48-.19,7.37,7.37,0,0,0-.81-.1h-.29a4.18,4.18,0,0,1-1-.18,1.32,1.32,0,0,1-.69-.47,1.58,1.58,0,0,1-.27-1,2.07,2.07,0,0,1,.26-1.07,1.64,1.64,0,0,1,.79-.64,3.51,3.51,0,0,1,1.31-.22,4.43,4.43,0,0,1,.9.09,4.36,4.36,0,0,1,.82.26,3.85,3.85,0,0,1,.76.44l-.72.87a4.15,4.15,0,0,0-.9-.44,2.92,2.92,0,0,0-.86-.14,1.74,1.74,0,0,0-.92.2.72.72,0,0,0-.3.63.44.44,0,0,0,.17.37,1.09,1.09,0,0,0,.44.16,7.43,7.43,0,0,0,.75.07h.22a5.1,5.1,0,0,1,1.09.17,1.49,1.49,0,0,1,.75.51,1.74,1.74,0,0,1,.3,1.1,1.94,1.94,0,0,1-.28,1.09,1.7,1.7,0,0,1-.84.65,4.13,4.13,0,0,1-1.42.21A4.77,4.77,0,0,1,101.52,73.35Z"/><path class="cls-4" d="M109.83,67.28H111v6.08h-1.2Zm3.69,2.4a1.42,1.42,0,0,0-.33-1,1.46,1.46,0,0,0-1.85,0,1.18,1.18,0,0,0-.31.88l-.13-1.18a2.28,2.28,0,0,1,.74-.85,1.78,1.78,0,0,1,1-.3,1.89,1.89,0,0,1,1.53.65,2.72,2.72,0,0,1,.55,1.83v3.69h-1.2Z"/><path class="cls-4" d="M117.51,73.14a2.14,2.14,0,0,1-.86-.9,3.33,3.33,0,0,1-.29-1.44v-1a3.19,3.19,0,0,1,.29-1.41,2.14,2.14,0,0,1,.86-.9,3.12,3.12,0,0,1,2.71,0,2.14,2.14,0,0,1,.86.9,3.19,3.19,0,0,1,.29,1.41v1a3.21,3.21,0,0,1-.29,1.42,2.08,2.08,0,0,1-.86.9,3.12,3.12,0,0,1-2.71,0Zm2.33-1.22a1.66,1.66,0,0,0,.34-1.1v-1a1.63,1.63,0,0,0-.34-1.09,1.24,1.24,0,0,0-1-.39,1.21,1.21,0,0,0-1,.39,1.59,1.59,0,0,0-.35,1.09v1a1.61,1.61,0,0,0,.35,1.1,1.21,1.21,0,0,0,1,.4A1.24,1.24,0,0,0,119.84,71.92Z"/><path class="cls-4" d="M124.21,73.35a3.69,3.69,0,0,1-.88-.32,3.58,3.58,0,0,1-.76-.53l.71-.87a4,4,0,0,0,1,.56,2.6,2.6,0,0,0,1,.19,2,2,0,0,0,1.07-.22.74.74,0,0,0,.35-.66.52.52,0,0,0-.19-.44,1,1,0,0,0-.48-.19,7.37,7.37,0,0,0-.81-.1h-.29a4.37,4.37,0,0,1-1-.18,1.34,1.34,0,0,1-.68-.47,1.58,1.58,0,0,1-.27-1,2.07,2.07,0,0,1,.26-1.07,1.64,1.64,0,0,1,.79-.64,3.45,3.45,0,0,1,1.3-.22,4.46,4.46,0,0,1,.91.09,4.36,4.36,0,0,1,.82.26,4.16,4.16,0,0,1,.76.44l-.72.87a4.65,4.65,0,0,0-.9-.44,3,3,0,0,0-.87-.14,1.71,1.71,0,0,0-.91.2.73.73,0,0,0-.31.63.42.42,0,0,0,.18.37,1,1,0,0,0,.43.16c.18,0,.43.05.75.07h.23a5,5,0,0,1,1.08.17,1.56,1.56,0,0,1,.76.51,1.74,1.74,0,0,1,.3,1.1,1.94,1.94,0,0,1-.28,1.09,1.72,1.72,0,0,1-.85.65,4.09,4.09,0,0,1-1.42.21A4.68,4.68,0,0,1,124.21,73.35Z"/><path class="cls-4" d="M133.71,71a1.39,1.39,0,0,0,.33,1,1.19,1.19,0,0,0,.92.35,1.26,1.26,0,0,0,.9-.31,1.18,1.18,0,0,0,.33-.89l.08,1.27a1.86,1.86,0,0,1-.61.76,1.75,1.75,0,0,1-1,.3,1.91,1.91,0,0,1-1.55-.64,2.74,2.74,0,0,1-.55-1.83v-3.7h1.19Zm2.48-3.7h1.19v6.08h-1.19Z"/><path class="cls-4" d="M139.19,67.28h1.2v6.08h-1.2Zm3.69,2.4a1.42,1.42,0,0,0-.33-1,1.25,1.25,0,0,0-.94-.35,1.22,1.22,0,0,0-.9.31,1.15,1.15,0,0,0-.32.88l-.13-1.18a2.28,2.28,0,0,1,.74-.85,1.78,1.78,0,0,1,1-.3,1.92,1.92,0,0,1,1.54.65,2.77,2.77,0,0,1,.54,1.83v3.69h-1.2Z"/><path class="cls-4" d="M146.94,73.14a2.1,2.1,0,0,1-.91-.93,3.2,3.2,0,0,1-.31-1.48V70a3.62,3.62,0,0,1,.3-1.54,2.13,2.13,0,0,1,.88-1,2.71,2.71,0,0,1,1.38-.34,2.15,2.15,0,0,1,1.3.39,2.34,2.34,0,0,1,.82,1.1,4.67,4.67,0,0,1,.29,1.73v.39h-4.1v-1h3a2,2,0,0,0-.38-1.15,1.08,1.08,0,0,0-.89-.42,1.29,1.29,0,0,0-1.05.45,1.89,1.89,0,0,0-.37,1.26v.77a1.6,1.6,0,0,0,.39,1.16,1.54,1.54,0,0,0,1.13.41,1.87,1.87,0,0,0,.73-.15,2.21,2.21,0,0,0,.63-.41l.79.78a3.39,3.39,0,0,1-1,.68,3.09,3.09,0,0,1-1.14.23A3.06,3.06,0,0,1,146.94,73.14Z"/><path class="cls-4" d="M156.75,71a1.39,1.39,0,0,0,.32,1,1.21,1.21,0,0,0,.92.35,1.3,1.3,0,0,0,.91-.31,1.21,1.21,0,0,0,.32-.89l.08,1.27a1.78,1.78,0,0,1-.61.76,1.75,1.75,0,0,1-1,.3,1.91,1.91,0,0,1-1.55-.64,2.74,2.74,0,0,1-.55-1.83v-3.7h1.2Zm2.47-3.7h1.19v6.08h-1.19Z"/><path class="cls-4" d="M162.22,67.28h1.2v6.08h-1.2Zm3.7,2.4a1.42,1.42,0,0,0-.34-1,1.24,1.24,0,0,0-.94-.35,1.22,1.22,0,0,0-.9.31,1.19,1.19,0,0,0-.32.88l-.12-1.18a2.18,2.18,0,0,1,.73-.85,1.79,1.79,0,0,1,1-.3,1.89,1.89,0,0,1,1.53.65,2.77,2.77,0,0,1,.54,1.83v3.69h-1.19Z"/><path class="cls-4" d="M172.15,64.85h1.2v8.51h-1.2Zm1.73,8.33a1.64,1.64,0,0,1-.62-.77l.09-1.27a1.41,1.41,0,0,0,.14.67,1,1,0,0,0,.4.42,1.33,1.33,0,0,0,.65.14,1.18,1.18,0,0,0,.92-.36,1.49,1.49,0,0,0,.32-1V69.68a1.56,1.56,0,0,0-.32-1,1.18,1.18,0,0,0-.92-.37,1.45,1.45,0,0,0-.65.14,1,1,0,0,0-.4.42,1.33,1.33,0,0,0-.14.65l-.13-1.17a2.26,2.26,0,0,1,.72-.83,1.82,1.82,0,0,1,1-.29,2.08,2.08,0,0,1,1.11.29,1.91,1.91,0,0,1,.7.85,3.38,3.38,0,0,1,.24,1.34V71a3.14,3.14,0,0,1-.25,1.32,1.75,1.75,0,0,1-.72.84,2.08,2.08,0,0,1-1.14.29A1.84,1.84,0,0,1,173.88,73.18Z"/><path class="cls-4" d="M179.73,71a1.39,1.39,0,0,0,.32,1,1.21,1.21,0,0,0,.92.35,1.3,1.3,0,0,0,.91-.31,1.21,1.21,0,0,0,.32-.89l.08,1.27a1.78,1.78,0,0,1-.61.76,1.75,1.75,0,0,1-1,.3,1.91,1.91,0,0,1-1.55-.64,2.74,2.74,0,0,1-.55-1.83v-3.7h1.2Zm2.47-3.7h1.19v6.08H182.2Z"/><path class="cls-4" d="M186.25,73.14a2.15,2.15,0,0,1-.91-.93,3.2,3.2,0,0,1-.31-1.48V70a3.62,3.62,0,0,1,.3-1.54,2.13,2.13,0,0,1,.88-1,2.71,2.71,0,0,1,1.38-.34,2.15,2.15,0,0,1,1.3.39,2.34,2.34,0,0,1,.82,1.1,4.67,4.67,0,0,1,.29,1.73v.39h-4.1v-1h3a2,2,0,0,0-.38-1.15,1.08,1.08,0,0,0-.89-.42,1.29,1.29,0,0,0-1.05.45,1.89,1.89,0,0,0-.37,1.26v.77a1.6,1.6,0,0,0,.39,1.16,1.54,1.54,0,0,0,1.13.41,1.87,1.87,0,0,0,.73-.15,2.21,2.21,0,0,0,.63-.41l.79.78a3.39,3.39,0,0,1-1,.68,3.09,3.09,0,0,1-1.14.23A3.06,3.06,0,0,1,186.25,73.14Z"/><path class="cls-4" d="M191.64,67.28h1.19v6.08h-1.19Zm3.69,2.4a1.42,1.42,0,0,0-.33-1,1.46,1.46,0,0,0-1.85,0,1.19,1.19,0,0,0-.32.88l-.12-1.18a2.2,2.2,0,0,1,.74-.85,1.76,1.76,0,0,1,1-.3,1.89,1.89,0,0,1,1.53.65,2.77,2.77,0,0,1,.54,1.83v3.69h-1.19Z"/><path class="cls-4" d="M202.6,73.14a2.17,2.17,0,0,1-.9-.9,3,3,0,0,1-.31-1.43v-1a2.94,2.94,0,0,1,.31-1.41,2.17,2.17,0,0,1,.9-.9,3.07,3.07,0,0,1,1.42-.31,3.19,3.19,0,0,1,.89.12,3.07,3.07,0,0,1,.76.33,2,2,0,0,1,.55.53l-.86.77a1.89,1.89,0,0,0-.6-.45,1.64,1.64,0,0,0-.72-.16,1.46,1.46,0,0,0-1.08.39,1.5,1.5,0,0,0-.38,1.09v1a1.54,1.54,0,0,0,.38,1.11,1.43,1.43,0,0,0,1.08.4,1.65,1.65,0,0,0,.72-.17,2,2,0,0,0,.6-.48l.86.83a2.33,2.33,0,0,1-.56.52,2.54,2.54,0,0,1-.75.32,3.24,3.24,0,0,1-.89.11A3,3,0,0,1,202.6,73.14Z"/><path class="cls-4" d="M207.8,73a1.75,1.75,0,0,1-.55-1.42,1.71,1.71,0,0,1,.51-1.35,2.27,2.27,0,0,1,1.54-.45H211l.08,1H209.3a1,1,0,0,0-.7.21.95.95,0,0,0,.08,1.32,1.6,1.6,0,0,0,.93.22,2.7,2.7,0,0,0,1-.15.47.47,0,0,0,.33-.45l.13.85a1.53,1.53,0,0,1-.39.41,1.87,1.87,0,0,1-.54.23,2.4,2.4,0,0,1-.68.08A2.62,2.62,0,0,1,207.8,73ZM211,69.51a1.25,1.25,0,0,0-.32-.93,1.19,1.19,0,0,0-.9-.33,2.45,2.45,0,0,0-.71.11,2.12,2.12,0,0,0-.62.31l-.87-.6a2.27,2.27,0,0,1,.91-.64,3.13,3.13,0,0,1,1.25-.24,2.87,2.87,0,0,1,1.3.27,1.91,1.91,0,0,1,.82.77,2.49,2.49,0,0,1,.28,1.23v3.9H211Z"/><path class="cls-4" d="M213.46,67.28h3v1h-3Zm.64-.82a1.7,1.7,0,0,1,.38-1.21,1.46,1.46,0,0,1,1.14-.4h.88V66h-.86a.27.27,0,0,0-.25.13.58.58,0,0,0-.09.33v6.92h-1.2Z"/><path class="cls-4" d="M218.6,73.14a2.1,2.1,0,0,1-.91-.93,3.2,3.2,0,0,1-.31-1.48V70a3.62,3.62,0,0,1,.3-1.54,2.13,2.13,0,0,1,.88-1,2.71,2.71,0,0,1,1.38-.34,2.15,2.15,0,0,1,1.3.39,2.34,2.34,0,0,1,.82,1.1,4.67,4.67,0,0,1,.29,1.73v.39h-4.1v-1h3a2,2,0,0,0-.38-1.15,1.08,1.08,0,0,0-.89-.42,1.29,1.29,0,0,0-1.05.45,1.89,1.89,0,0,0-.37,1.26v.77a1.6,1.6,0,0,0,.39,1.16,1.54,1.54,0,0,0,1.13.41,1.87,1.87,0,0,0,.73-.15,2.21,2.21,0,0,0,.63-.41l.79.78a3.39,3.39,0,0,1-1,.68,3.09,3.09,0,0,1-1.14.23A3.06,3.06,0,0,1,218.6,73.14Zm.62-7.63,1.67-2.08.87.71-1.79,2Z"/><path class="cls-4" d="M223.55,72.11h1.25v1.25h-1.25Z"/></g></g></svg>